<?xml version="1.0" standalone="no"?>
<!DOCTYPE svg PUBLIC "-//W3C//DTD SVG 20010904//EN"
 "http://www.w3.org/TR/2001/REC-SVG-20010904/DTD/svg10.dtd">
<svg version="1.0" xmlns="http://www.w3.org/2000/svg"
 width="64.000000pt" height="64.000000pt" viewBox="0 0 64.000000 64.000000"
 preserveAspectRatio="xMidYMid meet">

<g transform="translate(0.000000,64.000000) scale(0.100000,-0.100000)"
fill="#000000" stroke="none">
<path d="M60 560 c-19 -19 -20 -33 -20 -240 0 -207 1 -221 20 -240 19 -19 33
-20 260 -20 227 0 241 1 260 20 19 19 20 33 20 240 0 207 -1 221 -20 240 -19
19 -33 20 -260 20 -227 0 -241 -1 -260 -20z m498 -12 c7 -7 12 -29 12 -50 l0
-38 -250 0 -250 0 0 38 c0 21 5 43 12 50 17 17 459 17 476 0z m12 -281 c0
-113 -4 -167 -12 -175 -17 -17 -459 -17 -476 0 -8 8 -12 62 -12 175 l0 163
250 0 250 0 0 -163z"/>
<path d="M327 363 c-11 -20 -49 -195 -43 -200 11 -11 17 4 42 99 27 106 27
108 15 108 -6 0 -12 -3 -14 -7z"/>
<path d="M207 302 c-34 -35 -34 -42 2 -76 39 -37 63 -25 27 13 l-26 27 25 24
c14 13 25 27 25 32 0 17 -27 7 -53 -20z"/>
<path d="M380 317 c0 -8 9 -22 20 -32 l20 -18 -20 -22 c-20 -22 -27 -45 -12
-45 12 0 62 54 62 66 0 11 -52 64 -63 64 -4 0 -7 -6 -7 -13z"/>
</g>
</svg>
